<svg width="65" height="81" viewBox="0 0 65 81" xmlns="http://www.w3.org/2000/svg"><title>New Directions</title><g id="Page-1" fill="#ddd" fill-rule="evenodd"><g id="nd-logo"><path d="M34.99 68.895c-.127.085-.25.17-.378.253-.093.11-.185.22-.28.33-.22.213-.458.4-.682.606l-.193.21c-.27.198-.594.363-.83.578l-.604.734c-.377.383-.716.824-1.15 1.17-.204.162-.416.24-.637.365-.333.206-.664.41-.998.613-.292.157-.63.27-.927.424-.34.174-.702.24-1.058.375-.2.076-.355.26-.55.335-.373.142-1.284.096-1.346.61-.02.154.04.307.115.424.195.304.486.455.736.693.712.676 1.477 1.335 2.304 1.864.172.096.345.193.517.287.127.104.253.21.38.313.3.134.6.27.902.404.23.133 1.48.36 1.762.332.074-.007.11.005.11-.07.23.08.77.192 1.035.162l.423-.15c.07-.02.205-.023.205-.117.06.018.208.105.208 0 .212-.048.832-.237.832-.51h.104c.042.033.102.093.102 0 .312-.084.454-.307.7-.477.48-.332.97-.678 1.45-1.003.407-.274.76-.632 1.138-.924.227-.173.365-.44.587-.636.27-.243.594-.442.855-.696.263-.26.58-.648.605-1.023.053-.77-.774-1.493-1.262-1.958l-.285-.334c-.135-.088-.268-.18-.405-.27-.385-.365-.715-.778-1.12-1.14-.294-.227-.587-.45-.88-.675-.293-.263-.46-.628-.792-.842-.2-.13-.46-.202-.694-.253zM14.812 64.6c-.22.173-.47.32-.666.558-.066.13-.133.258-.2.386-.154.266-.395.448-.544.715-.265.467-.553.96-.822 1.426-.14.163-.278.327-.417.488l-.593 1.015c-.135.183-.27.37-.403.553-.067.148-.133.297-.202.444l-.212.274c-.19.304-.28.688-.392 1.03-.15.383-.3.767-.452 1.15-.16.48-.19.995-.26 1.52-.098.733-.19 1.443-.19 2.255 0 .56-.03 1.447.256 1.853.126.18.3.23.492.298l.652.065c.34.04.687.145 1.037.21.393.073.798.203 1.17.344.442.125.884.25 1.323.376l.737.322c.088.04.676.144.676.064.378.01.733.125 1.143.087.295-.03 2.082-.488 2.082-.702.072.014.208.098.208 0 1.032-.064 1.364-1.2 1.636-1.984.088-.26.175-.52.26-.782.01-.39.018-.78.025-1.172-.01-.514-.146-.997-.274-1.443-.135-.466-.145-.942-.28-1.41l-.244-.636c-.09-.387-.177-.774-.267-1.16-.08-.266-.25-.507-.31-.78-.178-.793-.274-1.6-.23-2.5.02-.42.123-.82.088-1.28-.028-.332-.245-.513-.56-.563v-.05c-.477-.54-.836-.522-1.5-.702l-.327-.133c-.24.022-.48.042-.723.063-.596.008-1.168-.076-1.714-.2zm18.408-4.912c-.094.11-.235.166-.272.316-.096.366.047.713.054 1.064.003.217-.065.367-.076.563-.027.39.125 1.075.607 1.075.087-.14.23-.21.346-.323.283-.28.59-.796.59-1.212.38-.117.976-1.028.478-1.32-.435-.253-1.167-.162-1.727-.162zm7.697-6.498c-.247.215-.614.138-.907.255l-.408.22c-.566.23-1.142.38-1.665.702-.292.178-.54.494-.786.74l-.476.546c-.2.38-.35.67-.325 1.167l.082.463c.02.23.04.46.058.688.08.237.355 1 .32 1.243-.08.56-.592 1.065-.663 1.6-.105.796.172 1.595.342 2.318.002.09.007.178.01.267.053.243.135.472.144.74.014.436-.108.878-.176 1.283-.02.18-.04.364-.058.546-.147.56-.512 1.142-.38 1.75.014.048.027.093.037.14.037.1.156.16.232.25.54.65 1.272 1.13 1.885 1.732.36.346.72.69 1.078 1.037l.254.204.587.702c.073.058.19.08.293.08.008.05.017.1.023.15.05.25.306.393.45.596.33.462.65.93.75 1.51.035.21.055.585-.037.777-.157.318-.528.626-.414 1.047.042.16.23.254.376.297.062.018.307.125.307.022.174.033.348.068.52.102.077-.06.312-.014.312-.102.074.008.312.098.312 0 .502-.003 1.005-.004 1.506-.008.175-.01.334-.085.512-.052.056.01.062.026.062-.043 1.047-.068.94-.482.843-1.33l-.144-1.07c-.088-.342-.174-.686-.26-1.03-.084-.538-.102-1.024-.136-1.584l-.09-.87c-.007-.343.09-.584.096-.92.02-1.378.033-2.657.23-3.936l.173-.72c.016-.288.03-.574.048-.86.07-.29.183-.58.25-.885.054-.264.017-.49.07-.752.04-.106.078-.21.115-.316.023-.168-.053-.416-.05-.614.02-.17.037-.34.054-.51-.04-.675-.167-1.337-.29-1.994-.04-.123-.08-.246-.124-.372l-.183-1.266c-.088-.518-.29-1.054-.29-1.59-.38-.14-.578-.87-.78-1.194-.763-1.213-2.345-1.117-3.693-1.158zm3.744-1.943c-.08.08-.16.162-.244.244-.14.24-.108.85-.028 1.12.056.197.186.274.316.425l.12.198c.08.07.16.145.238.218.05.09.1.182.148.274.144.184.332.312.46.507.07.16.142.317.214.473.267.525.484 1.048.66 1.623.06.202.07.452.12.654.113.454.244.93.315 1.38l.04.555c.126.743.38 1.525.394 2.307-.01.234-.02.47-.027.706l-.115.424c-.037.275-.04.534-.092.806-.056.223-.11.45-.164.673-.09.797-.128 1.577-.154 2.35-.043.275-.085.55-.13.826-.018.233.064.458.05.71l-.135.573c-.097.748-.022 1.563-.058 2.345-.013.266.023.532.047.77.07.718-.037 1.895.43 2.44.1.07.205.142.308.21.096.103.193.206.29.306.137.064.275.125.412.187.322.158.65.385 1.055.385l.57-.558c.36-.393.66-.823.994-1.226.303-.37.65-.685.978-1.03l.31-.53c.26-.398.548-.85.736-1.286.112-.26.16-.52.298-.766.292-.518.688-.983 1-1.493.468-.77.78-1.632 1.02-2.514.072-.194.142-.387.21-.58 0-.113.003-.228.003-.343.057-.305.19-.703.144-1.028l-.255-.782c-.063-.208-.125-.414-.186-.622l-.96-1.632c-.176-.34-.303-.696-.49-1.03-.088-.16-.24-.25-.347-.4-.05-.127-.1-.253-.152-.38-.303-.458-.585-.924-.89-1.375-.363-.536-.865-.994-1.265-1.508-.266-.342-.55-.702-.815-1.053l-.318-.29c-.31-.35-.585-.76-.925-1.084-.426-.405-1.014-.678-1.495-.998-.807-.537-1.586-1.118-2.636-1.18zm-3.847-7.06c-.328.285-1.342.26-1.82.32-.49.064-.972.29-1.426.45-.455.16-1.098.178-1.5.406-.2.113-.534.417-.623.628-.23.532-.11 1.166-.054 1.726.007.476.016.954.02 1.43.09.495.178.99.266 1.484.023.423.002.826.082 1.24l.002.232c.05.262.102.522.152.78.035.425.01.882.25 1.207.044.06.283.15.283.02.058.03.13.103.208.103.128-.368.696-.594 1.007-.767.17-.11.344-.22.514-.333.556-.28 1.143-.47 1.724-.692.306-.067.61-.133.915-.202.104-.045.52-.03.52-.154.063.018.208.107.208 0 .375 0 .753.016 1.095.05.065.007.05.01.05-.05.123-.022.247-.044.37-.07.535-.297.462-1.897.462-2.488.2-.243.088-.8.114-1.125.12-1.53.365-2.53-.792-3.63-.166-.157-.323-.378-.57-.402-.08-.008-.104.026-.104-.06-.39-.133-.88-.102-1.35-.102zM10.81 40.092c-.143.115-.395.146-.562.225l-.927.54c-.14.062-.278.123-.418.182-.132.105-.262.208-.394.31-.13.088-.316.09-.445.184-.747.54-1.344 1.338-1.862 2.065l-.46.546C4.02 47.19 3.346 50.91 3.275 54.724l-.055.41-.016 1.277c-.026.17-.05.344-.078.513.027.153.052.308.078.462.01.192-.05.38-.037.552l.098.73c.013.21-.054.43-.043.66l.09.564c.045.73.072 1.326.12 2.046.032.512.16 1.076.192 1.588l.02.715.168.72c.012.305.025.61.036.916.03.472.162.996.27 1.44.02.218.04.437.058.652.05.29.17.556.18.876.027.824-.307 1.257-.69 1.86l-.188.404c-.172.24-.34.48-.51.718-.113.15-.298.26-.422.394l-.2.324c-.207.297-.425.627-.63.92-.3.42-.723.83-.774 1.366-.074.763.234 1.202.472 1.803.144.37.253.945.69 1.1.247.088.406-.143.59-.243.21-.117.312-.3.465-.465.646-.712-.084-1.415-.315-2.058-.11-.302-.17-.865-.14-1.212.02-.245.13-.53.257-.725.09-.135.463-.267.463-.45.117.054.304.142.355.275.083.226-.147.584-.135.898.018.596.41 1.656.876 2.03l.457.19c.07.022.132.084.216.084v-.102c.264-.092.447 0 .728 0 .05-.177.193-.408.417-.408-.13-.34-.104-.767-.104-1.127-.443-.296-.747-1.718-.58-2.29.05-.18.158-.31.298-.442.11-.105.212-.198.384-.19.395.02.147.502.14.722-.005.127.052.192.08.29-.002.09-.005.182-.01.273.57.373.454 2.456 1.457 2.456l.03-.093c.066-.193.28-.287.342-.485l.062-.7c.046-.37.347-1.07.242-1.418-.023-.07-.067-.17-.155-.17.107-.528-.356-1.083-.577-1.508-.106-.202-.113-.41-.2-.62-.146-.344-.467-.726-.512-1.103l.044-.248c-.27-.18-.43-.576-.555-.855l-.326-.507c-.232-.432-.228-.94-.312-1.444l-.057-.264c.202-.333-.01-.92.037-1.272.134-1.035.17-2.033.29-3.075.094-.394.19-.787.28-1.18l.04-.712c.05-.174.102-.348.155-.524l.06-.444.24-.74c.03-.176.06-.35.086-.527.194-.59.49-1.165.74-1.73.104-.232.11-.492.195-.73l.326-.602c.26-.54.472-1.097.706-1.65.11-.2.222-.4.333-.605.167-.285.27-.623.39-.93.123-.326.36-.61.54-.917.067-.148.136-.295.204-.443.212-.312.474-.53.474-.955.542-.183.772-.88 1.06-1.317.077-.084.157-.167.235-.25.225-.412.284-.922.396-1.393l.216-.774c.024-.36-.083-.83-.17-1.168-.08-.148-.158-.295-.24-.442l-.188-.46-.226-.4c-.097-.26-.102-.526-.182-.792-.083-.27-.228-.492-.296-.775-.052-.212-.19-.642-.443-.662-.06-.007-.055 0-.055-.06l-.416-.205zm33.954-.92c-.136.15-.216.102-.415.102-.15.214-.42.24-.567.45-.327.465-.503 1.01-.718 1.53-.214.512-.692 1.004-.692 1.602.194.06.292.306.52.306.037-.128.1-.168.162-.278.11-.236.22-.47.327-.704.176-.46.85-2.496 1.382-2.496.04-.207.222-.378 0-.512zm-7.383-1.33h.105c-.03.06-.03.102-.104.102v-.103zm-12.895-2.047c-.214.588.037 1.022.192 1.538.127.45.254.902.378 1.35.08.116.16.232.24.344.202.41.405.82.596 1.24.155.35.24.742.402 1.084l.236.247c.247.36.445.757.704 1.12.22.222.438.446.657.67l.573.665c.27.266.595.487.88.77.112.13.222.26.33.393.276.27 1.082.913 1.468.913.05-.06.102-.12.15-.18.21-.497-.277-1.87-.435-2.336-.236-.694-.382-1.41-.695-2.064-.373-.774-.832-1.54-1.35-2.24l-.537-.578c-.254-.35-.6-.744-.93-1.03l-.292-.184c-.474-.45-.987-1.026-1.557-1.37-.31-.186-.68-.21-1.008-.352zm12.168-1.637v.102c.062-.03.104-.026.104-.103h-.104zM24.38 26.484c-.374.322-.955.098-1.34.57-.23.275-.163.555-.253.904-.154.593-.304 1.183-.452 1.757l-.075.49-.32.643c-.14.162-.28.323-.422.484-.14.122-.317.177-.432.34-.822 1.15-1.747 2.255-2.58 3.405-.253.395-.503.793-.755 1.19-.1.223-.2.447-.302.67-.368.653-.704 1.273-1.008 1.96l-.234.34c-.147.352-.265.73-.418 1.076-.03.068-.08.39-.143.39-.083.2-.2.38-.27.578l-.382 1.407c-.308.944-.638 1.91-.963 2.846l-.083.532c-.105.39-.24.804-.437 1.152l-.21.27-.42.74c-.325.42-.654.853-.925 1.31l-.317.645c-.188.23-.377.458-.567.685-.282.462-.398.982-.62 1.476l-.625 1.18c-.1.31-.197.62-.296.93-.12.312-.306.593-.442.904-.294.664-.454 1.37-.716 2.054-.18.47-.36.943-.543 1.412l-.16 1.012c-.06.187-.117.377-.176.566l-.037.61c-.057.307-.114.615-.173.924-.14 1.725-.284 3.898.115 5.518.08.228.163.458.244.686.105.138.21.275.317.41l.195.623.323.56c.12.232.45.9.77.9l.174-.178.397-.67c.157-.275.237-.598.41-.863.142-.19.285-.38.427-.572l.3-.55c.218-.326.58-.62.58-1.055.314-.097.327-.51.624-.51-.03-.455.895-1.568 1.26-1.926.097-.096.77-.664.77-.684h.05c.037.04.105.145.105.052h.052l.832-.103v-.05c.1.047.57.207.57.153h.053c.22-.082.51.007.73.033.598.066 1.11.1 1.65.258l.24.12.593.18c.162.08.325.164.487.246.07.017.2-.007.2.085.36.412.865.703 1.044 1.242.11.34.014.77-.036 1.11-.002.29-.006.58-.01.867.026.136.05.274.077.412l.044.86c.125.654.36 1.34.534 1.97.004.11.007.22.008.33.04.28.096.56.19.817.085.23.132.466.22.71l.135.28c.138.553.138 1.08.65 1.432.07.046.422.14.422-.007.06.015.207.104.207 0h.52c.072-.16.312-.135.312-.205.47-.03.828-.2 1.25-.283.298-.06.587-.075.87-.16.554-.236 1.108-.47 1.66-.707.28-.14.554-.27.832-.41.266-.136.455-.384.795-.384.08-.224.52-.367.52-.51.06.03.132.1.208.1.09-.384.51-.604.773-.87.226-.235.262-.604.512-.827.216-.194.426-.454.663-.624.207-.15.412-.25.617-.387l.812-.72c.105-.138.21-.273.315-.412.213-.217.467-.425.467-.765.128-.035.288-.205.417-.205-.067-.342.356-.866.477-1.193.137-.377.4-2.79.17-3.084-.433-.553-1.074.574-1.504.743-.276.108-.752.066-1.066.042-.077-.006-.364-.015-.364-.087l-.672-.363c-.362-.33-.583-.76-.787-1.17l-.376-.582-.486-1.094c-.21-.475-.48-.954-.743-1.397-.277-.464-.477-.987-.725-1.464-.06-.176-.12-.35-.182-.523l-.45-.947-.188-.27-.426-1.122c-.113-.254-.282-.612-.516-.793-.18-.14-.352-.203-.53-.358l-.705-.684c-.11-.08-.22-.16-.33-.242-.457-.363-.847-.827-1.208-1.266-.156-.166-.313-.33-.47-.498-.13-.17-.29-.336-.413-.512l-.292-.503c-.07-.064-.136-.128-.206-.193-.12-.13-.34-.48-.43-.633-.248-.414-.475-.857-.72-1.27-.24-.405-.58-.784-.75-1.22l-.18-.563-.03-.26c-.23-.572-.362-1.137-.48-1.764-.08-.42-.26-.833-.274-1.285-.007-.2.067-.813.16-.96.072-.118.347-.273.347-.317.24.115.37.296.464.534.03.212.06.423.088.633.205.852.29 1.772.51 2.613.08.16.164.32.245.48.036.147.072.294.106.44l.644 1.19.178.422c.707 1.244 1.675 2.39 2.683 3.48.133.146.317.24.46.367.13.142.263.285.393.43l.722.568c.248.197.4.458.61.682.197.212.448.36.64.59.185.217.195.493.32.738.17.338.392.67.527 1.02.132.346.194.678.425.98.104.136.113.26.168.424l.25.534.18.527c.153.33 1.1 2.074 1.418 2.11.108.012.2-.03.245-.118l.083-.53c.11-.65.165-1.308.19-2 .03-.24.064-.477.094-.717.062-1.95.03-3.883 0-5.78-.004-.25-.08-.433-.09-.666-.01-.305-.017-.61-.027-.916-.036-.27-.147-.585-.136-.872.014-.068.033-.136.05-.205-.225-.143-.244-.373-.37-.576-.107-.175-.355-.353-.518-.485-.283-.14-.564-.28-.847-.418-.23-.174-.46-.348-.69-.524l-.616-.39c-.08-.105-.16-.212-.24-.32-.196-.217-.41-.403-.62-.61-.18-.164-.362-.326-.543-.49l-.66-.837c-.267-.314-.555-.56-.768-.9-.12-.188-.342-.347-.45-.55-.235-.43-.387-.857-.584-1.3l-.22-.306c-.244-.42-.432-.88-.63-1.32-.07-.23-.138-.46-.206-.69-.312-.665-1.43-3.782-.5-4.268.516-.272 1.19.07 1.63.302l.414.328c.49.297 1.037.633 1.48 1.022.266.243.536.487.805.73.965.734 1.797 1.696 2.385 2.737l.24.302.513.855c.075.103.15.205.222.307.2.445.322.935.487 1.403.15.348.3.696.453 1.046.078.257.1.527.172.796.068.257.17.49.242.737.022.182.043.366.062.55l.16.62.06.915c.044.607.18 1.21.26 1.795l.02 1.787c.004.358.1.645.1 1.025l.01.97.082.514c.044.925.024 1.977.01 2.966-.013.718-.296 1.672.06 2.317.012.014.023.027.032.04.296.23 1.568.392 1.945.184.15-.083.22-.29.235-.446.038-.403-.125-.76-.172-1.126l-.04-.914-.15-.416c.01-.133.022-.268.034-.402-.06-.658-.148-1.34-.234-2.006-.065-.504-.026-1.053-.108-1.56l-.133-.635c-.08-.82-.07-1.557-.123-2.4-.02-.26-.078-.55-.113-.818-.028-.12-.055-.24-.086-.36.122-.163-.168-1.448-.196-1.74.002-.766.006-1.532.007-2.3.09-.682.597-1.56 1.054-2.07.21-.197.42-.396.628-.595l.115-.223c.27-.426.467-.736.548-1.26.068-.445-.175-.667-.26-1.027-.284-1.152-.7-2.252-1.13-3.333-.097-.24-.102-.487-.19-.735-.162-.454-.363-.87-.363-1.4 0-.223-.055-.618.177-.707.553-.217.76.554 1.275.554.08-.114.165-.227.247-.34.04-.227.078-.455.115-.683-.008-.464-.37-.89-.537-1.293-.094-.227-.138-.47-.285-.67l-.234-.135c-.477-.13-1.332.507-1.73.71l-.318.097c-.23.087-.37.237-.64.26-.21.024-.415.05-.623.075-.297-.007-.567-.167-.842-.236-.185-.02-.37-.04-.557-.062-.302-.06-.6-.175-.898-.244-.206-.014-.41-.03-.615-.045-.32-.02-.643-.08-.988-.106l-.938-.18c-.275-.007-.553-.015-.83-.025l-.468-.064c-.168.007-.333.068-.52.063l-.42-.06c-.142-.002-.294.06-.43 0-.11-.05-.252-.195-.282-.305-.145-.544.764-.41.927-.72.26-.504.01-.9-.095-1.374-.057-.25-.063-.415-.21-.62-.098-.134-.34-.21-.48-.285zm20.177-1.023c-.3.26-2.483.473-3.017.5-.358.015-.687-.066-1.012.063-.412.162-.606.485-.865.812-.52.65-1.05 1.232-1.473 1.937-.148.183-.295.367-.445.55-.22.44-.323.97-.41 1.473-.035.2.07.38.112.556.083.346.1.836.018 1.163l-.14.38c-.122.2-.568.638-.568.854h.207l.27-.16c.144-.1.18-.28.31-.39.127-.112.297-.17.433-.295l1.638-1.66c.138-.106.276-.208.413-.312l.217-.3c.115-.074.23-.15.344-.226l.46-.518c.178-.19.378-.3.56-.47.087-.103.174-.205.258-.31.293-.29.674-.535.97-.836l.215-.292.242-.13c.206-.162.35-.445.638-.445.058-.217.197-.268.348-.425.146-.183.29-.365.433-.548.16-.16.78-.553.78-.766-.047-.044-.035-.052-.104-.052v-.052c-.055.033-.157.143-.157.052-.064-.04-.156-.07-.156-.154-.19.066-.32.03-.52 0zM27.085 14.77c-.076 0-.08.044-.104.102.116 0 .176.166.28.206.196.033.39.065.586.1.166.06.244.256.394.34.436.236 1.122.077 1.514-.138.373-.207.898-.693.535-1.16-.11-.14-.29-.212-.43-.298l-.15-.12-.96-.157c-.44.36-1.498.502-1.665 1.125zm4.227-10.093c-.28.146-.564.292-.845.437-.086.082-.174.162-.262.244 0 .242.275.367.247.604-.065.54-1.08.048-1.348.4-.307.396-.196 1.132-.46 1.452.064.22.126.444.188.665l-.014.56c.14.56.193 3.04 1.103 2.79.068-.02.116-.086.136-.144.15-.476-.118-.93-.207-1.338-.1-.44-.237-.897-.258-1.36l.05-.663c0-.475-.108-.814.08-1.265.1-.244.3-.242.516-.132.298.15.25.51.507.708.59.45 2.294-.154 2.73-.598.224-.23.536-1.148.283-1.45-.115-.137-.396-.146-.457-.316-.002-.038-.007-.074-.01-.11.02-.19.215-.295.204-.52-.016-.308-.474-.392-.688-.205l-.313-.103c-.305.25-.825.194-1.18.343zM30.205.754c-.29.23-.923.05-1.292.134-.51.113-1.107.097-1.615.2-.143.05-.284.1-.427.152-.234.05-.487.065-.685.185-.248.147-.354.465-.478.695-.523.967-1.014 1.903-1.014 3.136.088-.01.312.01.312-.103.104.034.208.07.312.103.13-.122.728-.08.728-.205.076.025.416.15.416 0 .066.028.105.02.105.103.234.16.16.407.257.644.08.2.263.227.263.48.228 0 .747-.07.884.094.306.372.055.903.068 1.34l.07.41c.028.947-.085 2.027.14 2.96.042.17.236.674.38.78.115.085 1.37.332.773.724-.12.064-.242.127-.363.19-.28.12-.447.05-.702-.054-.173-.072-.33-.168-.446-.32l-.197-.594-.162-.372c-.162-.443-.283-.988-.33-1.474-.04-.417.098-1.468-.266-1.66-.19-.1-.902.18-1.152.21-.385.042-1.092-.11-1.358.163-.21.21-.09.51-.09.775l-.052.41c-.008.45.044.86.114 1.277.06.352.245.617.358.938l.18.792.54 1.415c.09.236.105.497.18.737.084.16.167.32.248.48.17.526.256 1.37.608 1.785.04.048.087.098.16.098v.05c-.056.12.03.265.103.357.644.798 1.718.195 2.555.105l.357.05c.27-.252 2.088-.238 1.687.397-.1.073-.2.148-.3.22l-.446.068c-.424.078-.858.136-1.303.202-.16.052-.317.107-.477.16-.394.077-.996.152-1.395.106-.348-.04-.64-.223-.91-.42-.176-.128-.24-.374-.335-.545-.166-.29-.34-.552-.47-.852l-.247-.588-.36-.647c-.05-.18-.104-.36-.158-.543l-.24-.536c-.087-.294-.137-.577-.266-.847-.074-.157-.202-.395-.404-.424-.41-.06-.67.322-.858.59l-.54.523c-.376.506-1.032 2.003-1.622 2.23-.072.03-.3.14-.3.036-.293-.074-.437-.283-.777-.255l-.79.23c-.924.237-1.782.59-2.66.903l-.597.174c-.355.183-.71.365-1.068.545-.55.22-1.138.345-1.673.6l-.312.212c-.29.152-.544.26-.827.42-.37.21-.89.39-1.084.82-.143.312-.18.653-.284.994-.11.35-.286.716-.355 1.09-.22 1.172-.215 2.3-.235 3.525-.005.232-.063.41-.077.617.018.137.034.272.05.41-.014.1-.028.203-.04.303.02.155.044.31.065.462.044.937.088 1.772.18 2.664-.008.115-.014.232-.02.347.067.603.238 1.19.342 1.802l.05.604.156.52c.022.183.043.366.062.548l.24.635c.03.116.06.232.087.347.042.1.11.718.157.718l.398 1.162.145.277.27.95.13.234c.105.294.145.597.276.87.16.328.14.825.34 1.186.118.215.17.454.287.677.09.172.492.514.492.682.042-.044.05-.036.05-.103l.037-.023c.018-.016.038-.03.056-.043.307-.293.322-.667.477-1.038.164-.404.388-.81.534-1.216.064-.21.13-.417.193-.626l.632-1.32c.09-.17.23-.295.31-.466.064-.174.128-.35.19-.525.1-.236.275-.385.275-.68.167-.082.208-.207.208-.408l.095-.03.117-.067c.2-.16.222-.39.356-.588.183-.275.438-.512.636-.78l.406-.65c.163-.21.373-.356.528-.578.135-.2.24-.41.39-.61.12-.102.236-.205.353-.308.177-.222.354-.44.53-.662.425-.462.88-.85 1.163-1.39.234-.45.293-1.035.39-1.55.046-.108.094-.215.14-.324.04-.17.078-.337.115-.507.074-.294.068-.572.187-.838.437-1 .807-.935 1.76-1.282.082-.03.272-.074.272-.174.062.018.207.108.207 0 .503 0 1.154-.006 1.482.33.126.13.263.636.335.82.11.272.043.396.236.653.053.07.04.244.13.244.055.125.11.252.16.377.093.164.36.345.36.545h.105c.04-.315.062-.642-.046-.958-.3-.88-.943-1.595-1.468-2.35-.606-.868-1.024-1.83-1.95-2.483-.625-.437-1.24-.9-1.873-1.327-.367-.248-1.343-.676-1.47-1.135-.035-.126-.003-.233.07-.32.31-.398 1.14.26 1.485.322.07.01.102-.015.102.066.178.218.368.258.6.394.286.167.503.398.772.602.14.085.283.172.425.256.254.242.51.483.765.723l.56.415.436.66.78.81c.113.164.228.327.34.488.172.2.345.4.518.597.18.285.334.623.495.924l.248.337c.18.404.368.82.518 1.23.13.353.217.704.466.998.38.453 2.2.753 2.853.87.07.01.362.106.362.01h.73c.1-.285.354-.242.59-.364.455-.238.928-.423 1.405-.61.136-.042.275-.08.412-.12.07-.034.192-.038.192-.134.217.08.438.163.655.242.326.14.33.48.833.318.238-.077.563-.662.696-.662l-.013-.186.484-.663.3-.556.33-.506c.062-.165.14-.444.087-.63-.046-.153-.126-.295-.123-.478.002-.143.032-.282.166-.343.266-.125 1.3 0 1.625.06l.368.128c0-.07-.035-.102.05-.102v-.05h.054c.017.066.012.152.103.152.13-.14.284-.017.462-.04.07-.02.143-.04.215-.062v-.05h.052c.016.066.01.152.103.152.078-.103.416-.135.416-.204h.05l1.864-.285c.3-.084.6-.165.9-.248l.66-.06.622-.203c.074-.028.22-.088.22-.175h.05c.243.117.424-.108.636-.166l.51-.04c.016-.068.035-.136.05-.204.4-.052.692-.256 1.054-.368.682-.212 1.407-.32 2.123-.414.117.005.235.01.353.012l.376-.12c.27-.06.552-.083.824-.072.126.003.52-.01.52-.01h.052c.302-.133 1.26.073 1.548.182.143.053.264.227.43.227v.153c-.11.07-.218.142-.328.213-.242.072-.59.04-.87.04-.795.008-1.592.015-2.39.02-.358.037-.634.244-.955.35-.38.124-.71.188-1.054.38-.27.15-.483.412-.71.62-.23.15-.462.297-.693.446l-.508.462c-.697.495-1.393.99-2.092 1.48-.556.436-1.037.922-1.53 1.408l-.418.31c-.337.312-.675.626-1.01.94l-.362.265c-.27.24-.48.523-.72.775-.292.306-.637.568-.938.866-.2.246-.403.492-.605.738-.242.265-.504.483-.768.726-.353.323-.66.686-.98 1.032-.175.166-.35.33-.528.493l-.178.296c-.25.308-.514.485-.588.883-.125.658.148.996.26 1.533l.164.958c.053.19.26.462.225.673-.013.07-.028.105.052.105.116.204.38.276.464.482.234.58-.746 2.12-1.035 2.62-.142.24-.188.507-.323.753-.11.198-.31.3-.332.547-.016.163-.005.38.158.45.238.1.554.014.75-.1 1.22-.71 1.53-2.212 2.24-3.32.24-.374.372-.94.814-1.163.124-.062.33-.062.486-.062-.023.682-.087.73-.36 1.256-.04.115-.078.232-.117.347-.07.103-.142.206-.214.306-.066.206-.132.413-.2.617-.193.36-.388.615-.425 1.06-.017.184.06.404.276.404.137-.09.254 0 .416 0 .113-.105.307-.097.45-.145.136-.05.335-.185.43-.304.265-.332.35-.734.513-1.12.106-.135.212-.27.318-.408l.283-.623c.308-.675.746-1.368 1.295-1.888.667-.636 1.454-1.08 2.188-1.595.1-.1.2-.2.297-.3.08-.044.164-.087.245-.13.154-.135.31-.268.462-.402.964-.677 2.04-1.215 2.976-1.944.453-.355 3.802-2.148 3.802-2.397.06.032.132.102.208.102v-.102L54 31.85c.244-.16.555-.25.786-.42.33-.242.627-.496.983-.695.152-.068.305-.134.456-.203.24-.15.444-.376.687-.515.25-.145.55-.264.785-.428.12-.1.24-.196.36-.296.18-.102.363-.202.543-.305.207-.165.37-.355.673-.355.128-.36.7-.49 1.005-.67.347-.205.676-.44.99-.698l.137-.233.505-.5.22-.426c.466-.703.984-1.293 1.313-2.073.052-.12.11-.67.198-.67v-.153c-.335-.21-.415-.592-.678-.87-.82-.868-1.707-1.655-2.573-2.48l-.877-.684-.458-.406c-.238-.203-.535-.352-.79-.516-.197-.128-.437-.267-.604-.42l-.194-.196-.763-.406-1.205-.724c-.26-.1-.518-.202-.775-.302-.18-.09-.302-.208-.476-.31-.393-.175-.786-.35-1.178-.528-.458-.173-.958-.238-1.428-.382l-.598-.284c-.326-.104-.675-.13-1.017-.19-.264-.046-.513-.192-.795-.22-.156-.016-.273.068-.412.068-.26-.375-.96-.372-1.4-.427-.458-.06-.905-.223-1.36-.266-.205.016-.41.036-.617.054-2.09-.134-4.19-.13-6.044.4-.54.154-1.156.19-1.566.58-.622.592-.182 1.73-.063 2.423.01.323.02.646.027.97-.234-.024-.47-.155-.624-.155-.054-.42-.264-.746-.377-1.14-.18-.626-.204-1.237-.26-1.93-.026-.137-.052-.272-.08-.41l.006-.97.078-.41c.005-.41.01-.818.013-1.228.017-.152.035-.307.05-.46 0-.198-.056-.397-.048-.613.03-.17.056-.342.082-.513.025-.368-.084-.653-.084-1.02 0-.735.083-1.415.097-2.15-.006-.19-.01-.374-.017-.562-.028-.12-.054-.24-.084-.36.12-.15.09-.365.118-.56l.076-.36.024-1.38c.06-.73-.08-1.93-.674-2.354-.4-.287-.915-.284-1.412-.384l-.38-.13-.977-.06-.418-.08-1.142-.024-.367-.07c-.408-.04-.825.116-1.193-.018zm-.312-.716l.728.102c.15-.13.73-.03.73-.102.31.002.623.007.933.01l.47.082.985.03c.066.006.21.077.21-.02 1.032.162 2.436.252 3.168.974.592.58.622 1.663.568 2.554-.032.205-.06.41-.09.615-.008.35.063.707.063 1.022-.02.17-.043.342-.064.513l-.01 1.38c-.028.188-.055.377-.08.564.025.34.054.682.08 1.024.004.29-.063.557-.063.816 0 .2.067.39.057.613-.03.19-.057.378-.087.566-.026.53.025 1.057.067 1.538.027.33-.055.647.086.944.063.134.216.152.363.163.627.038 1.465-.27 2.083-.37.318-.052.68-.098.983-.12l.548-.054c.08-.027.337-.05.337-.155.104.033.207.068.312.1.157-.133.34 0 .52 0v-.1c.102.033.207.068.31.1.15-.126.937.035.937-.1.06.015.208.103.208 0 .357 0 .648.05.988.05v-.05c.297.127.635.075.983.12.358.047.777.186 1.148.186v-.05h.053v-.05c.5.224 1.148.233 1.712.325.49.08.938.274 1.408.374l1.24.276c.09.03.475.01.475.098.4.322 1.012.418 1.5.58.296.1.94.618 1.262.508.056-.02.046-.02.046.036h.053c.292.308.8.415 1.167.605.202.104.613.45.825.49.07.01.14-.055.14.03h.052c.172.18.408.283.605.428.443.327.907.587 1.35.925.258.198.483.455.727.657.21.177.5.302.725.472.474.434.948.87 1.424 1.304.1.142.203.284.303.425l.396.378c.122.102.22.31.33.44.202.237.42.416.62.66.14.226.28.452.42.675.112.17.296.352.342.552.04.174.043.422-.007.592-.064.218-.22.41-.32.607-.037.114-.072.23-.11.342l-.614.888c-.04.12-.084.24-.128.36-.24.32-.478.642-.72.964-.16.238-.3.573-.534.756-.266.208-.504.422-.784.606l-.975.595c-.128.104-.254.21-.384.313-.28.164-.577.29-.845.466l-1.335.976c-.176.116-.413.195-.577.315l-1.312.998c-.077.038-.15.074-.227.11l-.926.66c-.187.135-.408.22-.604.34l-.516.443c-.206.143-.413.286-.62.426-.56.427-.97.934-1.456 1.43-.155.12-.307.244-.46.366-.4.353-.71.715-1.098 1.066l-.667.48c-.17.154-.337.31-.505.463l-.53.36-.607.617c-.11.068-.22.135-.33.2-.267.232-.53.466-.794.697-.11.062-.218.127-.327.19-.44.327-.956.677-1.257 1.15-.263.41-.36.828-.564 1.27-.188.4-.406.786-.538 1.22-.067.218.002.448.038.653.023.147.046.294.067.44l.428.71c.182.28.275.693.302 1.038.04.58-.07 1.137-.112 1.697-.034.443-.038.946-.038 1.432 0 .235-.03.513.148.66.395.322.92.413 1.382.616l.314.208c.24.11.494.177.728.298l.624.425c.904.467 1.7.982 2.45 1.744.068.068.283.13.283.194.115.143.233.222.358.36.147.16.32.508.472.713l.912 1.042c.227.28.344.612.546.902.31.44.632.867.944 1.31l.71 1.324c.142.196.28.393.42.59.663 1.068 1.296 2.204 1.49 3.483.115.754.002 1.512-.157 2.203-.11.475-.19 1.013-.387 1.45-.16.348-.37.666-.55 1.01-.06.138-.124.273-.187.41-.07.072-.14.145-.21.22-.192.313-.318.66-.49.98-.11.172-.22.34-.334.508-.064.172-.128.346-.193.515l-.23.4c-.23.472-.43.937-.687 1.4-.37.654-1.02 1.11-1.525 1.66-.28.302-.545.677-.827.982-.09.078-.182.156-.275.234l-.356.466c-.407.326-1.092.47-1.668.31-.25-.067-.48-.222-.776-.114-.19.067-.223.314-.345.445-.24.253-.59.516-.902.675-.264.13-.793.243-1.11.232-.19-.006-.366-.07-.57-.058-.296.062-.59.123-.887.182-.42.025-.91.01-1.308-.028l-.355.03-.777-.033c-.386-.027-.78-.14-1.195-.18-.105-.01-.234-.055-.342-.027-.423.1-.666.35-.997.61-.15.096-.3.196-.448.292l-.896.735c-.44.308-.858.69-1.29 1.004-.185.133-.36.335-.577.392-.07.018-.185-.007-.185.08-.524.184-1.06.463-1.62.56-.55.096-1.164.005-1.71-.037-.446-.035-.93.025-1.326-.075-.214-.056-.63-.2-.82-.3l-.31-.214c-1.263-.557-2.297-1.474-3.435-2.23-.2-.17-.4-.345-.603-.518l-.546-.387c-.545-.486-1.15-1.25-1.95-1.23-.714.013-.712.773-.945 1.223-.15.28-.322.512-.432.814-.138.372-.292 1.056-.513 1.358-.07.098-.14.2-.212.298-.208.197-.82.483-1.094.59l-.638.186-.312.21c-.246.057-.493.117-.74.174l-.333.15c-1.647.516-3.515-.214-4.895-.727-.325-.073-.648-.147-.973-.222-.325-.052-.65-.105-.974-.16l-.333-.107c-.15.008-.3.017-.452.023-.443-.007-.744-.197-1.05-.45-.267-.22-.22-.542-.274-.867-.086-.294-.17-.59-.254-.883-.1-.373-.06-.87-.558-.916-1.066-.102-2.06.225-2.97.594-.35.14-.673.19-.967.442-.557.476-.924 1.067-1.575 1.41-.23.12-.577.145-.793.015-.7-.425-.934-1.677-1.23-2.38-.165-.39-.37-.715-.444-1.157L0 74.728c.02-.476.41-.76.41-1.23.1-.034.152-.05.23-.126.046-.084.09-.168.132-.25l.422-.518c.067-.134.134-.267.198-.4l.42-.478c.042-.084.084-.17.127-.253l.293-.263c.105-.155.213-.31.318-.463.234-.275.497-.564.622-.896.385-1.033-.03-2.48-.237-3.47-.02-.217-.036-.434-.056-.653-.14-.75-.225-1.508-.3-2.306-.01-.074-.104-.306.013-.306v-.152c-.12-.138-.16-.913-.16-1.127 0-.06-.01-.05.056-.05v-.154c-.186-.207-.085-.644-.13-.917l-.08-.36h.105v-.154c-.206-.234-.09-1.225-.113-1.588l-.094-.51c.246-.3.078-1.733.055-2.155l.047-.61c.01-.757 0-1.56 0-2.25.2-.26.09-.833.114-1.176.017-.294.074-.605.112-.918.046-.415.135-.953.218-1.378l.12-.364c.01-.076-.04-.153.062-.153.09-.574.257-1.1.4-1.64l.152-.65.234-.437c.153-.434.234-.88.387-1.303.14-.397.414-.764.65-1.116.07-.148.136-.296.205-.445.263-.43.65-.78.94-1.192.157-.23.29-.447.49-.656.237-.25.515-.454.737-.712.175-.204.4-.25.623-.367.103-.078.205-.156.307-.236l1.04-.603c.117-.037.238-.072.356-.107.223-.1.37-.248.61-.328.113-.033.225-.067.338-.102.17-.122.365-.287.404-.496.044-.238-.014-.457-.055-.664-.107-.537-.24-1-.358-1.526l-.154-.42c-.164-.865-.292-1.642-.472-2.496l-.13-.27c-.114-.53-.086-1.084-.18-1.623-.025-.15-.11-.72-.285-.72.077-.244.022-.412.007-.666-.044-.666-.11-1.248-.11-1.942l.014-3.17c.054-.223.11-.448.163-.673l.05-.913c.05-.338.207-.658.267-.978.12-.65.29-1.258.502-1.853.064-.183.088-.36.18-.528.448-.84 1.74-1.266 2.54-1.648.716-.344 1.44-.64 2.17-.952.096-.042.3-.09.3-.232l.337-.055.29-.194c.13-.077.724-.212.724-.363h.053c.036.04.105.145.105.05h.05c.323-.25 2.393-.872 2.393-1.074h.053c.117.07.572.11.572-.102h.052c.044.05.078.103.156.103.186-.183.65-.204.936-.204.08-.238.318-.267.47-.448.654-.793 1.282-1.61 1.852-2.446.107-.12.216-.237.323-.357.193-.413.024-.898-.03-1.308-.05-.378-.073-.706-.148-1.066l-.16-.468c-.003-.663-.005-1.327-.01-1.99.092-1.145.307-2.257.67-3.295.116-.34.158-.66.3-.98l.54-1.07c.064-.152.13-.303.196-.457.134-.236.364-.448.364-.748.058-.02.117-.038.174-.06.24-.132.42-.3.682-.4.18-.027.36-.056.54-.085.414-.096.81-.14 1.254-.187.15-.018.29-.075.46-.047.074.013.323.044.323-.04.07.008.31.1.31 0 .282-.01.622.04.833-.102z" id="Fill-1"/></g></g></svg>
