<?xml version="1.0" standalone="no"?>
<!DOCTYPE svg PUBLIC "-//W3C//DTD SVG 20010904//EN"
 "http://www.w3.org/TR/2001/REC-SVG-20010904/DTD/svg10.dtd">
<svg version="1.0" xmlns="http://www.w3.org/2000/svg"
 width="700.000000pt" height="700.000000pt" viewBox="0 0 700.000000 700.000000"
 preserveAspectRatio="xMidYMid meet">
<metadata>
Created by potrace 1.11, written by Peter Selinger 2001-2013
</metadata>
<g transform="translate(0.000000,700.000000) scale(0.100000,-0.100000)"
fill="#000000" stroke="none">
<path d="M3279 6996 c-2 -2 -44 -6 -94 -9 -122 -8 -196 -22 -242 -46 -34 -17
-46 -33 -90 -123 -92 -189 -132 -357 -128 -541 2 -62 8 -137 14 -167 6 -30 13
-78 16 -105 l6 -50 -82 -110 c-132 -178 -146 -189 -244 -201 -11 -1 -20 -3
-20 -4 0 -2 -11 -4 -25 -5 -38 -4 -226 -81 -392 -159 -54 -25 -100 -46 -102
-46 -14 0 -226 -105 -252 -125 -17 -13 -39 -40 -48 -59 -24 -50 -76 -251 -82
-316 -3 -30 -9 -68 -13 -85 -8 -31 -6 -370 2 -465 3 -30 10 -67 15 -81 6 -14
13 -56 17 -94 3 -38 8 -72 11 -76 2 -4 13 -54 24 -111 11 -56 30 -139 41 -182
12 -44 23 -91 25 -105 3 -14 7 -36 9 -48 4 -23 -28 -73 -47 -73 -18 0 -139
-60 -186 -91 -24 -16 -46 -29 -50 -29 -13 0 -88 -75 -144 -145 -89 -112 -158
-233 -173 -305 -4 -19 -14 -47 -21 -62 -14 -27 -78 -279 -88 -348 -3 -19 -8
-51 -11 -70 -13 -77 -20 -648 -10 -765 3 -33 7 -89 10 -125 6 -94 14 -174 26
-265 6 -44 13 -98 16 -120 3 -22 10 -65 17 -95 27 -120 17 -220 -26 -272 -60
-71 -89 -109 -138 -178 -29 -41 -56 -77 -60 -80 -15 -11 -47 -117 -45 -150 1
-35 56 -186 97 -269 46 -92 95 -90 201 9 72 67 132 98 252 129 58 16 150 14
164 -3 11 -14 38 -105 48 -161 9 -54 70 -96 138 -94 50 2 151 -22 325 -76 112
-35 114 -35 195 -37 71 -2 102 6 245 60 133 49 158 73 190 177 7 22 22 58 35
80 12 22 26 51 30 65 23 78 99 80 180 4 128 -121 422 -321 520 -354 25 -9 91
-14 180 -14 132 -1 144 1 210 28 47 19 108 59 185 120 107 85 129 102 199 149
25 17 64 17 146 1 32 -7 145 -6 283 2 146 8 189 22 247 85 31 34 41 40 64 34
105 -28 138 -19 209 58 31 33 93 100 138 147 70 74 89 103 147 220 36 74 82
162 102 194 88 146 132 275 136 398 4 120 -36 229 -148 400 -24 37 -46 76 -50
85 -9 25 -170 262 -202 298 -15 17 -40 48 -56 70 -33 46 -42 55 -110 111 -89
73 -298 195 -376 219 -13 4 -36 16 -51 26 l-26 19 5 123 c9 223 8 230 -27 295
-39 74 -44 132 -17 193 83 182 88 189 140 229 124 95 200 156 211 170 6 8 20
22 32 30 73 52 124 95 242 207 73 69 152 140 175 156 23 17 44 33 47 36 3 4
57 41 120 84 63 43 138 93 165 112 86 60 166 113 293 197 127 83 172 129 241
251 13 23 31 53 41 67 27 38 60 116 60 141 0 11 -13 41 -30 66 -16 24 -30 47
-30 52 0 4 -10 17 -22 28 -13 11 -45 46 -73 78 -68 78 -169 175 -208 200 -18
11 -43 30 -57 43 -50 47 -186 136 -279 184 -53 27 -100 54 -105 59 -6 5 -18 9
-28 9 -11 0 -37 9 -60 21 -23 12 -64 29 -92 39 -28 10 -69 25 -91 33 -22 8
-58 18 -80 21 -22 4 -62 13 -89 21 -56 17 -189 40 -286 50 -36 4 -74 9 -85 11
-28 6 -345 5 -354 0 -4 -3 -36 -8 -72 -11 -35 -4 -89 -13 -119 -20 -92 -22
-136 -25 -156 -11 -17 13 -18 32 -17 252 0 132 3 341 6 467 8 289 -2 325 -101
369 -73 33 -189 49 -388 53 -105 2 -193 3 -195 1z m336 -71 c22 -2 77 -12 123
-21 134 -28 158 -73 149 -289 -5 -108 -16 -588 -19 -810 -2 -98 13 -201 39
-285 19 -59 28 -70 57 -70 20 0 20 -9 0 167 -9 80 -1 107 38 131 37 22 186 59
281 70 117 13 426 6 527 -12 52 -10 99 -22 105 -27 5 -5 22 -9 37 -9 31 0 99
-15 168 -37 25 -7 77 -23 115 -34 105 -30 359 -159 483 -244 157 -109 395
-320 457 -407 50 -68 45 -88 -57 -243 -77 -117 -124 -166 -210 -218 -39 -23
-81 -49 -94 -57 -170 -110 -232 -149 -266 -167 -23 -13 -55 -33 -72 -46 -17
-13 -53 -36 -81 -52 -27 -16 -62 -36 -76 -45 -240 -141 -619 -387 -649 -421
-3 -3 -40 -29 -82 -58 -111 -76 -167 -137 -221 -240 -27 -50 -52 -93 -57 -96
-5 -3 -11 -18 -15 -34 -14 -63 -101 -123 -151 -104 -20 7 -17 48 5 97 10 23
33 71 50 108 37 81 49 138 28 138 -32 0 -69 -46 -123 -153 -85 -167 -128 -224
-186 -246 -15 -6 -35 -8 -43 -5 -16 6 -21 59 -7 68 13 8 132 249 136 276 2 16
-5 34 -19 50 -22 25 -42 73 -51 127 -3 15 -11 51 -19 80 -23 79 -19 104 22
159 61 80 357 380 503 510 30 27 82 74 116 105 33 31 96 83 140 114 173 127
230 170 259 197 17 15 69 42 115 59 79 29 95 31 233 34 117 1 151 5 163 17 14
13 11 17 -23 33 -42 20 -172 28 -245 15 -24 -4 -67 -11 -96 -14 -100 -12 -239
-50 -253 -69 -5 -7 -25 -14 -101 -32 -9 -2 -26 -9 -38 -15 -11 -6 -40 -13 -63
-16 -23 -3 -55 -9 -72 -14 -104 -33 -276 -48 -438 -39 -73 4 -93 -7 -80 -46 4
-11 6 -32 5 -47 -3 -38 -130 -238 -158 -249 -18 -6 -36 -2 -74 18 l-51 27
-107 -44 c-59 -24 -114 -48 -122 -55 -37 -29 -298 24 -338 69 -11 12 -31 53
-46 91 -38 97 -94 191 -163 275 -32 39 -74 91 -93 115 -19 24 -48 54 -65 67
-16 12 -39 32 -50 43 -11 11 -30 27 -41 35 -12 8 -50 35 -85 60 -121 85 -204
107 -197 51 2 -20 28 -42 130 -111 180 -121 208 -146 292 -273 41 -61 87 -128
101 -147 34 -46 56 -95 62 -145 l4 -39 -21 19 c-22 20 -38 51 -79 157 -18 45
-29 59 -53 67 -49 17 -98 13 -171 -15 -85 -33 -115 -68 -131 -154 -12 -64 -58
-224 -69 -240 -7 -9 -32 -40 -57 -67 -94 -103 -181 -211 -245 -303 -27 -40
-57 -80 -65 -89 -13 -14 -70 -124 -70 -135 0 -2 -15 -30 -33 -63 -18 -32 -59
-124 -91 -206 -32 -81 -62 -150 -67 -153 -15 -9 -57 48 -77 106 -10 30 -36
107 -57 170 -115 350 -123 379 -156 575 -6 39 -13 77 -14 86 -21 119 -24 589
-4 696 13 66 47 182 65 219 18 36 155 115 273 158 39 14 92 36 118 49 39 20
211 80 363 127 16 4 39 2 63 -8 36 -14 40 -13 65 5 14 11 49 56 77 101 50 81
113 154 147 173 27 15 50 -17 87 -120 19 -50 57 -138 86 -194 66 -129 91 -149
185 -146 36 1 84 8 107 15 24 7 70 16 102 20 91 10 121 56 47 70 -30 5 -158
-6 -226 -21 -71 -15 -124 0 -135 37 -4 13 -13 30 -20 38 -7 8 -21 40 -30 70
-9 30 -35 107 -57 170 -22 63 -46 138 -54 166 -8 28 -21 69 -30 90 -17 41 -26
214 -12 237 3 6 37 14 75 19 37 4 87 10 109 14 49 8 51 5 59 -101 6 -87 9
-100 36 -181 27 -79 58 -108 107 -100 34 5 62 22 62 36 0 4 -20 17 -45 29 -69
32 -76 59 -81 285 -2 112 -8 194 -14 200 -6 6 -24 11 -41 11 -31 1 -42 13 -68
77 -10 26 -13 27 -58 22 -27 -3 -63 -7 -82 -9 l-33 -3 5 46 c9 75 71 223 115
274 43 50 391 79 647 53z m1022 -2139 c6 -6 -98 -111 -208 -210 -56 -51 -240
-224 -414 -391 -55 -52 -105 -95 -113 -95 -14 0 -13 3 26 60 22 32 24 42 19
123 -8 127 7 168 111 306 122 161 139 177 204 179 110 5 265 26 277 38 7 7 89
-1 98 -10z m-1793 -82 c15 -6 41 -71 50 -129 6 -32 -16 -75 -38 -75 -8 0 -24
-8 -36 -18 -21 -17 -21 -19 -5 -35 9 -9 31 -17 48 -18 99 -2 215 -8 237 -13
23 -6 62 -11 145 -20 40 -4 141 -25 187 -38 57 -17 120 -4 207 41 130 66 132
66 183 -41 32 -67 40 -137 18 -163 -17 -20 -26 -19 -63 7 -36 26 -47 28 -64
15 -18 -13 -16 -63 4 -128 9 -30 17 -58 19 -64 1 -5 32 -100 69 -209 l68 -200
-16 -50 c-11 -35 -36 -73 -76 -118 -32 -36 -71 -92 -86 -122 -24 -50 -28 -69
-29 -163 -2 -59 1 -128 5 -153 4 -25 10 -72 13 -105 3 -33 8 -71 10 -85 3 -14
7 -77 11 -140 4 -63 8 -117 10 -120 2 -3 6 -39 9 -80 4 -41 9 -95 11 -120 19
-173 26 -241 32 -285 11 -79 8 -125 -8 -136 -19 -12 -85 -11 -131 1 -47 13
-57 42 -50 140 6 92 5 302 -2 430 -4 52 -8 142 -11 200 -2 58 -7 116 -10 130
-2 13 -9 67 -14 120 -16 155 -80 374 -148 505 -97 189 -255 362 -455 497 -115
79 -166 94 -207 60 -84 -67 87 -550 273 -772 141 -168 242 -259 361 -323 55
-30 97 -85 101 -132 1 -16 6 -68 10 -115 9 -107 10 -572 1 -665 -15 -155 -19
-180 -29 -199 -10 -19 -13 -18 -45 19 -35 41 -82 134 -189 373 -55 124 -64
137 -139 211 -44 43 -119 117 -166 164 -144 142 -258 309 -316 462 -16 44 -58
225 -68 295 -3 25 -15 54 -26 65 -19 19 -19 19 -39 -1 -36 -36 -27 -120 38
-356 34 -120 209 -390 344 -528 80 -83 178 -170 190 -170 10 0 53 -68 63 -100
11 -35 81 -183 186 -395 145 -290 159 -311 223 -344 50 -25 122 -23 158 3 99
72 91 69 106 49 19 -24 10 -202 -13 -263 -9 -25 -22 -60 -28 -78 -7 -18 -19
-34 -27 -37 -8 -3 -21 -18 -28 -34 -14 -33 -94 -112 -167 -167 -62 -46 -69
-54 -92 -91 -27 -44 -85 -106 -113 -121 -14 -6 -43 -23 -65 -37 -22 -14 -49
-29 -60 -34 -11 -5 -56 -26 -100 -46 -44 -20 -125 -47 -181 -60 -56 -12 -107
-26 -113 -29 -6 -4 -33 -9 -60 -12 -44 -4 -51 -2 -70 22 -12 15 -24 39 -28 53
-3 14 -16 58 -29 97 -13 39 -25 86 -28 105 -2 19 -14 70 -26 114 -21 76 -23
100 -30 373 0 22 -82 103 -124 122 -95 42 -192 61 -343 65 l-104 2 -61 -60
c-33 -34 -74 -85 -90 -114 -16 -29 -40 -63 -54 -75 -13 -13 -24 -27 -24 -33 0
-5 -25 -48 -56 -95 -31 -47 -69 -110 -85 -141 -15 -31 -36 -64 -45 -73 -15
-16 -18 -16 -34 -1 -10 9 -46 71 -79 138 -42 87 -62 139 -67 182 -18 141 -3
472 26 570 5 17 12 46 15 65 8 50 17 79 73 230 67 179 96 253 131 325 16 33
43 93 61 133 18 39 36 72 40 72 3 0 17 19 30 43 13 23 54 88 92 144 70 104
103 170 111 220 7 43 104 344 148 458 41 108 173 372 222 445 66 97 250 333
278 357 42 36 62 81 93 218 36 155 40 162 95 180 53 16 64 17 85 9z m49 -819
c70 -29 268 -224 341 -335 66 -101 90 -154 134 -295 43 -137 54 -199 40 -228
-8 -16 -11 -16 -50 4 -53 27 -285 260 -323 324 -16 28 -37 58 -47 69 -10 11
-18 27 -18 35 0 9 -22 61 -49 116 -50 102 -101 252 -101 299 0 31 19 34 73 11z
m1697 -285 c0 -10 -9 -24 -19 -30 -18 -9 -81 -121 -81 -142 0 -5 -16 -43 -35
-84 -31 -69 -36 -74 -55 -64 -31 17 -24 45 43 179 52 104 68 128 97 143 44 23
50 23 50 -2z m-2911 -75 c27 -14 58 -77 77 -160 4 -16 20 -55 35 -85 49 -99
53 -140 24 -248 -24 -88 -85 -200 -127 -230 -10 -7 -18 -18 -18 -24 0 -6 -19
-43 -43 -82 -24 -39 -51 -89 -61 -111 -19 -42 -59 -127 -120 -258 -20 -43 -36
-83 -36 -88 0 -6 -15 -46 -34 -88 -35 -80 -81 -248 -91 -336 -3 -27 -10 -66
-15 -85 -9 -34 -12 -60 -26 -205 -11 -111 -7 -269 6 -311 14 -44 67 -141 81
-150 5 -3 9 -16 9 -30 0 -14 9 -42 19 -62 86 -163 112 -253 93 -314 -6 -18
-13 -49 -14 -68 -5 -44 -27 -80 -50 -80 -23 0 -43 31 -67 105 -11 33 -27 79
-36 103 -8 23 -13 56 -10 71 4 21 0 31 -12 35 -23 9 -53 -23 -62 -66 -9 -37
10 -128 33 -163 8 -11 16 -41 18 -66 6 -63 -19 -89 -85 -85 -58 3 -82 24 -115
96 -20 45 -23 65 -18 110 6 64 -5 91 -31 74 -31 -19 -54 -59 -57 -102 -3 -38
3 -60 48 -180 14 -38 15 -46 1 -71 -18 -36 -71 -81 -95 -81 -25 0 -35 15 -75
118 -39 101 -40 145 -3 195 11 16 41 59 66 95 25 37 60 83 77 103 36 41 109
171 119 212 4 15 -3 82 -14 150 -11 67 -23 147 -25 177 -3 30 -8 69 -12 85 -3
17 -7 50 -9 75 -1 25 -5 70 -9 100 -3 30 -8 82 -10 115 -13 204 -17 296 -18
345 -1 62 12 344 18 405 11 102 15 141 19 160 2 11 7 40 11 65 20 123 70 287
126 407 54 119 228 333 270 333 7 0 20 6 28 14 20 17 169 96 182 96 6 0 23 -7
38 -15z m2691 -353 c34 -13 78 -65 102 -119 18 -40 19 -59 14 -162 -16 -310
-30 -381 -74 -381 -145 -3 -234 -20 -344 -67 -66 -29 -171 -90 -176 -105 -8
-18 -53 -8 -61 15 -12 28 -30 150 -36 245 -3 40 -9 92 -14 115 -6 23 -11 101
-13 173 -2 110 0 134 15 157 19 30 60 54 104 61 16 3 64 17 106 31 41 13 106
27 144 31 37 3 75 10 83 15 18 11 114 5 150 -9z m365 -659 c44 -25 82 -49 85
-52 3 -3 18 -13 34 -21 104 -54 398 -423 509 -640 19 -36 46 -85 62 -110 32
-51 74 -173 70 -204 -20 -157 -70 -290 -153 -414 -22 -32 -53 -87 -69 -122
-46 -99 -93 -172 -158 -243 -33 -36 -82 -90 -108 -121 -27 -31 -54 -56 -60
-56 -26 0 -119 51 -152 82 -19 18 -37 47 -40 63 -19 101 -22 320 -6 500 7 72
14 162 17 200 5 85 10 121 25 200 23 128 20 172 -36 450 -8 39 -17 81 -19 95
-9 54 -73 196 -104 230 -68 75 -82 97 -88 140 -4 28 -1 48 10 64 14 22 19 23
58 15 24 -6 79 -30 123 -56z m-321 -119 c83 -14 135 -51 171 -124 10 -19 24
-43 33 -53 9 -10 17 -26 19 -35 4 -27 41 -229 57 -312 14 -72 15 -235 2 -290
-36 -153 -54 -301 -62 -505 -3 -71 -6 -134 -6 -140 -1 -18 12 -180 18 -210 2
-17 11 -62 19 -102 19 -93 21 -158 6 -177 -21 -25 -88 -34 -252 -36 -148 -2
-176 19 -128 97 32 51 23 113 -27 188 -21 32 -43 65 -49 74 -5 9 -14 19 -20
23 -5 4 -50 47 -100 95 -49 49 -129 124 -177 167 -98 88 -103 101 -76 186 38
113 43 216 17 340 -27 134 -26 166 7 232 28 56 32 95 14 144 -6 16 -14 56 -17
89 -3 33 -7 62 -9 64 -1 2 4 22 13 45 25 62 112 146 180 175 32 13 72 30 88
37 86 39 168 47 279 28z m-688 -565 c22 -18 16 -53 -16 -89 -16 -18 -30 -41
-30 -50 0 -26 -60 -100 -81 -100 -30 0 -42 38 -43 133 -1 118 4 126 90 121 36
-1 72 -8 80 -15z m-1459 -436 c28 -7 68 -27 88 -43 20 -16 41 -30 47 -32 7 -3
11 -59 13 -158 1 -85 4 -164 8 -175 7 -26 44 -146 63 -205 7 -25 25 -99 39
-165 29 -143 27 -213 -10 -310 -43 -114 -59 -129 -188 -171 -98 -33 -123 -37
-198 -36 -60 1 -100 8 -130 20 -59 26 -292 89 -353 97 -62 8 -84 20 -98 53
-10 27 -13 212 -4 268 3 16 8 54 11 84 17 148 109 351 235 521 14 19 45 66 68
104 108 177 105 175 245 168 61 -3 135 -12 164 -20z m1506 -357 c18 -7 45 -28
60 -45 15 -18 48 -49 74 -71 104 -83 262 -246 282 -290 18 -40 18 -47 5 -80
-8 -19 -29 -48 -47 -64 -17 -16 -64 -58 -102 -95 -69 -65 -294 -231 -300 -221
-2 3 -14 -5 -27 -16 -13 -12 -48 -29 -78 -38 -47 -14 -70 -15 -155 -7 -55 6
-116 15 -135 20 -121 36 -440 285 -440 344 0 26 27 42 85 53 16 3 34 9 40 14
5 4 48 23 96 42 128 51 241 121 314 197 36 36 65 69 65 73 0 4 21 23 47 43 25
19 75 62 111 95 35 33 66 60 68 60 3 0 19 -6 37 -14z"/>
<path d="M3480 6612 c-54 -16 -107 -38 -138 -58 -21 -14 -21 -16 -8 -43 19
-37 6 -51 -48 -51 -23 0 -46 -4 -52 -8 -18 -11 -47 -138 -38 -164 4 -13 8 -36
9 -53 2 -32 12 -107 22 -165 6 -39 31 -87 48 -94 19 -7 38 10 38 35 0 14 -10
62 -21 109 -24 97 -25 266 -2 280 18 11 54 -7 65 -33 6 -12 20 -27 33 -33 48
-24 196 22 228 71 8 13 18 40 21 60 5 31 2 41 -20 61 -23 21 -25 27 -15 49 8
17 8 29 1 36 -15 15 -73 16 -123 1z"/>
<path d="M3126 5788 c-87 -48 -100 -82 -34 -90 15 -2 36 -12 48 -23 42 -38
150 -15 186 40 31 47 -11 92 -94 101 -40 4 -56 0 -106 -28z"/>
</g>
</svg>
